<svg width="34" height="43" viewBox="0 0 34 43" fill="none" xmlns="http://www.w3.org/2000/svg">
<g clip-path="url(#clip0_51_61)">
<path d="M26.664 13.2528L17.664 5.25275C17.285 4.91575 16.715 4.91575 16.336 5.25275L7.336 13.2528C7.122 13.4428 7 13.7138 7 13.9998V35.9998C7 36.5518 7.447 36.9998 8 36.9998H26C26.553 36.9998 27 36.5518 27 35.9998V13.9998C27 13.7138 26.878 13.4428 26.664 13.2528ZM25 34.9998H9V14.4488L17 7.33775L25 14.4488V34.9998Z" fill="white"/>
<path d="M16.296 13.7097C16.689 14.1027 17.327 14.0867 17.706 13.7097C18.091 13.3237 18.093 12.6777 17.706 12.2897C17.336 11.9197 16.666 11.9197 16.296 12.2897C15.897 12.6877 15.898 13.3137 16.296 13.7097Z" fill="white"/>
<path d="M14 17.9998C13.447 17.9998 13 18.4478 13 18.9998V29.9998C13 30.5518 13.447 30.9998 14 30.9998C14.553 30.9998 15 30.5518 15 29.9998V18.9998C15 18.4478 14.553 17.9998 14 17.9998Z" fill="white"/>
<path d="M20 30.9998C20.553 30.9998 21 30.5518 21 29.9998V18.9998C21 18.4478 20.553 17.9998 20 17.9998C19.447 17.9998 19 18.4478 19 18.9998V29.9998C19 30.5518 19.447 30.9998 20 30.9998Z" fill="white"/>
</g>
<defs>
<clipPath id="clip0_51_61">
<rect width="34" height="42.5" fill="white"/>
</clipPath>
</defs>
</svg>
