<svg width="34" height="43" viewBox="0 0 34 43" fill="none" xmlns="http://www.w3.org/2000/svg">
<g clip-path="url(#clip0_51_109)">
<path d="M33 15C33 9.486 28.514 5 23 5C17.751 5 13.443 9.068 13.04 14.214C12.381 14.077 11.699 14.004 11 14.004C5.486 14.004 1 18.49 1 24.004C1 27.162 2.494 30.093 5 31.977V36.004C5 36.896 6.082 37.336 6.707 36.711L9.532 33.886C10.01 33.956 10.498 34.004 11 34.004C16.251 34.004 20.56 29.934 20.961 24.784C21.625 24.922 22.305 25 23 25C23.501 25 23.99 24.953 24.469 24.882L27.292 27.705C27.483 27.896 27.739 27.998 27.999 27.998C28.128 27.998 28.258 27.974 28.382 27.922C28.756 27.768 29 27.402 29 26.998V22.973C31.506 21.089 33 18.158 33 15ZM11 32.004C10.442 32.004 9.901 31.95 9.393 31.845C9.014 31.768 8.834 31.868 8.62 32.019C8.571 32.053 8.515 32.075 8.473 32.117L7 33.59C7 33.281 7.009 31.677 6.981 31.391C6.968 31.256 6.924 31.118 6.87 31.018C6.817 30.918 6.728 30.805 6.622 30.719C6.597 30.699 6.583 30.671 6.556 30.653C4.329 29.165 3 26.68 3 24.004C3 19.593 6.589 16.004 11 16.004C15.411 16.004 19 19.593 19 24.004C19 28.415 15.411 32.004 11 32.004ZM27 24.584C26.784 24.368 25.666 23.237 25.446 23.058C25.274 22.916 24.985 22.818 24.81 22.818C24.768 22.818 24.732 22.837 24.691 22.842C24.663 22.845 24.636 22.834 24.608 22.839C23.426 23.084 22.112 23.028 20.907 22.702C20.446 19.179 18.152 16.228 15.009 14.847C15.09 10.508 18.64 7 23 7C27.411 7 31 10.589 31 15C31 19.887 27.402 21.066 27.057 22.191C27.038 22.255 27.025 22.316 27.018 22.383C27.015 22.416 27 22.444 27 22.479V24.584Z" fill="white"/>
<path d="M22.287 10.287C21.898 10.698 21.905 11.306 22.287 11.707C22.708 12.107 23.337 12.078 23.707 11.707C24.091 11.324 24.095 10.676 23.707 10.287C23.336 9.91702 22.677 9.91702 22.287 10.287Z" fill="white"/>
<path d="M18.297 14.289C17.889 14.697 17.909 15.322 18.287 15.699C18.696 16.109 19.333 16.085 19.707 15.709C20.091 15.326 20.095 14.678 19.707 14.289C19.336 13.919 18.667 13.919 18.297 14.289Z" fill="white"/>
<path d="M27.706 10.287C27.326 9.91702 26.666 9.91702 26.296 10.287C25.892 10.691 25.904 11.317 26.286 11.697C26.678 12.09 27.293 12.099 27.706 11.707C28.091 11.324 28.094 10.676 27.706 10.287Z" fill="white"/>
<path d="M10.297 23.3C9.90699 23.668 9.88899 24.291 10.287 24.709C10.66 25.083 11.308 25.109 11.707 24.709C12.083 24.334 12.103 23.694 11.707 23.3C11.336 22.919 10.657 22.93 10.297 23.3Z" fill="white"/>
<path d="M14.297 23.3C13.888 23.686 13.908 24.342 14.297 24.709C14.666 25.1 15.347 25.091 15.707 24.709C16.113 24.304 16.075 23.648 15.707 23.3C15.336 22.919 14.657 22.93 14.297 23.3Z" fill="white"/>
<path d="M6.29701 23.3C5.88801 23.686 5.90801 24.342 6.29701 24.709C6.66601 25.1 7.34601 25.091 7.70701 24.709C8.11301 24.304 8.07501 23.648 7.70701 23.3C7.33601 22.919 6.65701 22.93 6.29701 23.3Z" fill="white"/>
</g>
<defs>
<clipPath id="clip0_51_109">
<rect width="34" height="42.5" fill="white"/>
</clipPath>
</defs>
</svg>
