<svg width="34" height="43" viewBox="0 0 34 43" fill="none" xmlns="http://www.w3.org/2000/svg">
<g clip-path="url(#clip0_51_120)">
<path d="M30 5H16C14.346 5 13 6.346 13 8V13H4C2.346 13 1 14.346 1 16V29C1 30.654 2.346 32 4 32H18.586L23.293 36.707C23.92 37.334 25 36.894 25 36C25 27.502 25 29.297 25 21H30C31.654 21 33 19.654 33 18V8C33 6.346 31.654 5 30 5ZM23 33.586L19.708 30.294C19.616 30.201 19.505 30.128 19.382 30.077C19.26 30.027 19.13 30 19 30H4C3.448 30 3 29.552 3 29V16C3 15.448 3.448 15 4 15H22C22.561 15 23 15.439 23 16C23 23.017 23 27.338 23 33.586ZM31 18C31 18.552 30.552 19 30 19H25V16C25 14.346 23.654 13 22 13H15V8C15 7.44 15.439 7 16 7H30C30.552 7 31 7.448 31 8V18Z" fill="white"/>
<path d="M7.29299 21.291C6.89699 21.685 6.91799 22.327 7.29299 22.7C7.67399 23.083 8.32399 23.089 8.71299 22.7C9.08799 22.325 9.10899 21.687 8.71299 21.291C8.34299 20.912 7.66299 20.921 7.29299 21.291Z" fill="white"/>
<path d="M12.293 21.291C11.897 21.685 11.918 22.327 12.293 22.7C12.674 23.083 13.324 23.089 13.713 22.7C14.088 22.325 14.109 21.687 13.713 21.291C13.343 20.912 12.663 20.921 12.293 21.291Z" fill="white"/>
<path d="M17.293 21.291C16.901 21.66 16.911 22.34 17.293 22.7C17.654 23.083 18.332 23.092 18.703 22.7C19.092 22.331 19.112 21.679 18.703 21.291C18.343 20.912 17.652 20.921 17.293 21.291Z" fill="white"/>
</g>
<defs>
<clipPath id="clip0_51_120">
<rect width="34" height="42.5" fill="white"/>
</clipPath>
</defs>
</svg>
