<svg width="34" height="43" viewBox="0 0 34 43" fill="none" xmlns="http://www.w3.org/2000/svg">
<g clip-path="url(#clip0_51_86)">
<path d="M32.6261 13.1551C32.4301 12.4161 31.4981 12.1561 30.9531 12.7051L25.2301 18.4291L20.7011 17.2931L19.5731 12.7721L25.2961 7.04809C25.8411 6.50309 25.5881 5.57209 24.8471 5.37509C21.2101 4.40209 17.1341 5.31209 14.2241 8.22209C11.4751 10.9711 10.4971 14.8231 11.2721 18.3661L2.73514 26.9031C0.410136 29.2301 0.433136 32.9671 2.73514 35.2671C5.04014 37.5721 8.79214 37.5641 11.0991 35.2571L19.6221 26.7341C23.2791 27.5371 27.0761 26.4831 29.7801 23.7781C32.5461 21.0121 33.6371 16.9421 32.6261 13.1551ZM9.68414 33.8431C8.15514 35.3721 5.67114 35.3761 4.14814 33.8531C2.62714 32.3321 2.60714 29.8581 4.14814 28.3171L11.9721 20.4931C12.5041 21.6841 13.2461 22.8031 14.2221 23.7791C15.1821 24.7391 16.2931 25.4901 17.4971 26.0311L9.68414 33.8431ZM28.3651 22.3651C24.8491 25.8811 19.1531 25.8811 15.6361 22.3651C12.1281 18.8561 12.1281 13.1461 15.6381 9.63609C17.4981 7.77809 19.9961 6.86909 22.5001 7.01609L17.7591 11.7581C17.5111 12.0061 17.4101 12.3661 17.4951 12.7071L18.9051 18.3591C18.9951 18.7171 19.2741 18.9971 19.6331 19.0861L25.2941 20.5051C25.6341 20.5921 25.9961 20.4911 26.2441 20.2421L30.9841 15.5011C31.1201 18.0301 30.1861 20.5431 28.3651 22.3651Z" fill="white"/>
<path d="M6.29314 30.2851C5.91514 30.6431 5.89614 31.3111 6.29314 31.7051C6.66614 32.0801 7.30714 32.1021 7.70314 31.7051C8.09614 31.3121 8.10714 30.6911 7.70314 30.2851C7.33314 29.9151 6.66314 29.9151 6.29314 30.2851Z" fill="white"/>
</g>
<defs>
<clipPath id="clip0_51_86">
<rect width="34" height="42.5" fill="white"/>
</clipPath>
</defs>
</svg>
