<svg width="34" height="43" viewBox="0 0 34 43" fill="none" xmlns="http://www.w3.org/2000/svg">
<g clip-path="url(#clip0_51_140)">
<path d="M26.941 5H8.064C5.824 5 4.002 6.794 4.002 9V10V10.003H3C2.448 10.003 2 10.451 2 11.003C2 11.555 2.448 12.003 3 12.003H4.002V20H3C2.448 20 2 20.448 2 21C2 21.552 2.448 22 3 22H4.002V29.997H3C2.448 29.997 2 30.445 2 30.997C2 31.549 2.448 31.997 3 31.997H4.002V33C4.002 35.205 5.824 37 8.064 37H26.941C29.18 37 31.002 35.205 31.002 33V9C31.002 6.794 29.18 5 26.941 5ZM29.002 33C29.002 34.103 28.077 35 26.941 35H8.064C6.927 35 6.002 34.103 6.002 33C6.002 26.216 6.002 21.822 6.002 9C6.002 7.897 6.927 7 8.064 7H26.941C28.077 7 29.002 7.897 29.002 9V33Z" fill="white"/>
<path d="M17.502 21C13.366 21 10.002 24.364 10.002 28.5C10.002 29.878 11.124 31 12.502 31H22.502C23.88 31 25.002 29.878 25.002 28.5C25.002 24.364 21.638 21 17.502 21ZM22.502 29H12.502C12.231 29 12.002 28.771 12.002 28.5C12.002 25.467 14.469 23 17.502 23C20.535 23 23.002 25.467 23.002 28.5C23.002 28.776 22.778 29 22.502 29Z" fill="white"/>
<path d="M17.502 19C19.984 19 22.002 16.981 22.002 14.5C22.002 12.019 19.984 10 17.502 10C15.021 10 13.002 12.019 13.002 14.5C13.002 16.981 15.021 19 17.502 19ZM17.502 12C18.88 12 20.002 13.122 20.002 14.5C20.002 15.878 18.88 17 17.502 17C16.124 17 15.002 15.878 15.002 14.5C15.002 13.122 16.124 12 17.502 12Z" fill="white"/>
</g>
<defs>
<clipPath id="clip0_51_140">
<rect width="34" height="42.5" fill="white"/>
</clipPath>
</defs>
</svg>
