<svg width="34" height="43" viewBox="0 0 34 43" fill="none" xmlns="http://www.w3.org/2000/svg">
<g clip-path="url(#clip0_51_100)">
<path d="M27 8H7C5.346 8 4 9.346 4 11V15C4 15.553 4.448 16 5 16H6V34C6 35.654 7.346 37 9 37H25C26.654 37 28 35.654 28 34V16H29C29.552 16 30 15.553 30 15V11C30 9.346 28.654 8 27 8ZM26 34C26 34.552 25.551 35 25 35H9C8.449 35 8 34.552 8 34V16H26V34ZM28 14C5.494 14 14.763 14 6 14V11C6 10.448 6.449 10 7 10H27C27.551 10 28 10.448 28 11V14Z" fill="white"/>
<path d="M13 7H21C21.552 7 22 6.553 22 6C22 5.447 21.552 5 21 5H13C12.448 5 12 5.447 12 6C12 6.553 12.448 7 13 7Z" fill="white"/>
<path d="M22 33C22.552 33 23 32.553 23 32V19C23 18.447 22.552 18 22 18C21.448 18 21 18.447 21 19V32C21 32.553 21.448 33 22 33Z" fill="white"/>
<path d="M17 33C17.552 33 18 32.553 18 32V19C18 18.447 17.552 18 17 18C16.448 18 16 18.447 16 19V32C16 32.553 16.448 33 17 33Z" fill="white"/>
<path d="M12 33C12.552 33 13 32.553 13 32V19C13 18.447 12.552 18 12 18C11.448 18 11 18.447 11 19V32C11 32.553 11.448 33 12 33Z" fill="white"/>
</g>
<defs>
<clipPath id="clip0_51_100">
<rect width="34" height="42.5" fill="white"/>
</clipPath>
</defs>
</svg>
