<svg width="34" height="43" viewBox="0 0 34 43" fill="none" xmlns="http://www.w3.org/2000/svg">
<g clip-path="url(#clip0_51_57)">
<path d="M24.9685 20.684L21.9625 11.676C23.1715 11.122 24.0095 9.903 24.0095 8.5C24.0095 6.57 22.4395 5 20.5095 5H13.5095C11.5795 5 10.0095 6.57 10.0095 8.5C10.0095 9.921 10.8665 11.15 12.0525 11.688L9.05149 20.684C8.97049 20.927 8.98549 21.191 9.09349 21.423L16.0935 36.423C16.3815 37.038 17.2085 37.206 17.7165 36.707C17.9385 36.489 24.7945 21.705 24.9265 21.423C25.0355 21.191 25.0505 20.926 24.9685 20.684ZM13.5095 7H20.5095C21.3365 7 22.0095 7.673 22.0095 8.5C22.0095 9.286 21.3975 9.942 20.5505 9.999C20.5375 10.002 20.5235 9.998 20.5095 10H13.5095L13.4015 9.992C12.6215 9.944 12.0095 9.288 12.0095 8.5C12.0095 7.673 12.6825 7 13.5095 7ZM17.0095 20.997C16.4575 20.997 16.0095 20.548 16.0095 19.997C16.0095 19.446 16.4575 18.997 17.0095 18.997C17.5615 18.997 18.0095 19.446 18.0095 19.997C18.0095 20.548 17.5615 20.997 17.0095 20.997ZM18.0095 31.515V22.813C19.1705 22.399 20.0095 21.299 20.0095 19.997C20.0095 18.343 18.6635 16.997 17.0095 16.997C15.3555 16.997 14.0095 18.343 14.0095 19.997C14.0095 21.299 14.8475 22.398 16.0095 22.813V31.514L11.0745 20.939L14.0565 12H19.9625L22.9445 20.939L18.0095 31.515Z" fill="white"/>
</g>
<defs>
<clipPath id="clip0_51_57">
<rect width="34" height="42.5" fill="white"/>
</clipPath>
</defs>
</svg>
