<svg width="34" height="43" viewBox="0 0 34 43" fill="none" xmlns="http://www.w3.org/2000/svg">
<g clip-path="url(#clip0_51_92)">
<path d="M13 5H4C2.346 5 1 6.346 1 8V17C1 18.654 2.346 20 4 20H13C14.654 20 16 18.654 16 17V8C16 6.346 14.654 5 13 5ZM14 17C14 17.552 13.552 18 13 18H4C3.448 18 3 17.552 3 17V8C3 7.448 3.448 7 4 7H13C13.552 7 14 7.448 14 8V17Z" fill="white"/>
<path d="M30 5H21C19.346 5 18 6.346 18 8V17C18 18.654 19.346 20 21 20H30C31.654 20 33 18.654 33 17V8C33 6.346 31.654 5 30 5ZM31 17C31 17.552 30.552 18 30 18H21C20.448 18 20 17.552 20 17V8C20 7.448 20.448 7 21 7H30C30.552 7 31 7.448 31 8V17Z" fill="white"/>
<path d="M13 22H4C2.346 22 1 23.346 1 25V34C1 35.654 2.346 37 4 37H13C14.654 37 16 35.654 16 34V25C16 23.346 14.654 22 13 22ZM14 34C14 34.552 13.552 35 13 35H4C3.448 35 3 34.552 3 34V25C3 24.448 3.448 24 4 24H13C13.552 24 14 24.448 14 25V34Z" fill="white"/>
<path d="M30 22H21C19.346 22 18 23.346 18 25V34C18 35.654 19.346 37 21 37H30C31.654 37 33 35.654 33 34V25C33 23.346 31.654 22 30 22ZM31 34C31 34.552 30.552 35 30 35H21C20.448 35 20 34.552 20 34V25C20 24.448 20.448 24 21 24H30C30.552 24 31 24.448 31 25V34Z" fill="white"/>
</g>
<defs>
<clipPath id="clip0_51_92">
<rect width="34" height="42.5" fill="white"/>
</clipPath>
</defs>
</svg>
