<svg width="34" height="43" viewBox="0 0 34 43" fill="none" xmlns="http://www.w3.org/2000/svg">
<g clip-path="url(#clip0_51_42)">
<path d="M27 8H24V6C24 5.448 23.552 5 23 5H11C10.448 5 10 5.448 10 6V8H7C5.346 8 4 9.346 4 11V34C4 35.654 5.346 37 7 37H27C28.654 37 30 35.654 30 34V11C30 9.346 28.654 8 27 8ZM12 7H22V10H12V7ZM28 34C28 34.551 27.551 35 27 35H7C6.449 35 6 34.551 6 34V11C6 10.449 6.449 10 7 10H10V11C10 11.552 10.448 12 11 12H23C23.552 12 24 11.552 24 11V10H27C27.551 10 28 10.449 28 11V34Z" fill="white"/>
<path d="M23 17H11C10.448 17 10 17.448 10 18C10 18.552 10.448 19 11 19H23C23.552 19 24 18.552 24 18C24 17.448 23.552 17 23 17Z" fill="white"/>
<path d="M23 23H11C10.448 23 10 23.448 10 24C10 24.552 10.448 25 11 25H23C23.552 25 24 24.552 24 24C24 23.448 23.552 23 23 23Z" fill="white"/>
<path d="M23 29H11C10.448 29 10 29.448 10 30C10 30.552 10.448 31 11 31H23C23.552 31 24 30.552 24 30C24 29.448 23.552 29 23 29Z" fill="white"/>
</g>
<defs>
<clipPath id="clip0_51_42">
<rect width="34" height="42.5" fill="white"/>
</clipPath>
</defs>
</svg>
