<svg width="34" height="43" viewBox="0 0 34 43" fill="none" xmlns="http://www.w3.org/2000/svg">
<g clip-path="url(#clip0_51_128)">
<path d="M17 5C10.383 5 5 10.383 5 17C5 24.811 15.817 36.21 16.277 36.691C16.67 37.103 17.329 37.103 17.722 36.691C18.183 36.21 29 24.811 29 17C29 10.383 23.617 5 17 5ZM17 34.522C14.591 31.845 7 22.935 7 17C7 11.486 11.486 7 17 7C22.514 7 27 11.486 27 17C27 22.93 19.408 31.845 17 34.522Z" fill="white"/>
<path d="M17 10C13.14 10 10 13.141 10 17C10 20.859 13.14 24 17 24C20.86 24 24 20.859 24 17C24 13.141 20.86 10 17 10ZM17 22C14.243 22 12 19.757 12 17C12 14.243 14.243 12 17 12C19.757 12 22 14.243 22 17C22 19.757 19.757 22 17 22Z" fill="white"/>
</g>
<defs>
<clipPath id="clip0_51_128">
<rect width="34" height="42.5" fill="white"/>
</clipPath>
</defs>
</svg>
