<svg width="34" height="43" viewBox="0 0 34 43" fill="none" xmlns="http://www.w3.org/2000/svg">
<g clip-path="url(#clip0_51_69)">
<path d="M29.202 30H29.192C29.189 29.999 29.186 29.999 29.182 30C28.035 30 27.169 29.078 27.169 27.857V17.903C27.169 12.779 23.222 8.551 18.182 8.047V6C18.182 5.447 17.734 5 17.182 5C16.63 5 16.182 5.447 16.182 6V8.046C11.133 8.541 7.176 12.772 7.176 17.903V27.857C7.176 29.099 6.337 30 5.182 30H5C4.448 30 4 30.447 4 31C4 31.553 4.448 32 5 32H13.291C12.627 34.534 14.58 37 17.181 37C19.781 37 21.736 34.536 21.072 32H29.181C29.188 32 29.194 32 29.201 32C29.753 32 30.201 31.553 30.201 31C30.202 30.447 29.754 30 29.202 30ZM17.182 35C15.696 35 14.636 33.396 15.436 32H18.928C19.728 33.394 18.669 35 17.182 35ZM8.617 30C8.973 29.378 9.176 28.646 9.176 27.857V17.903C9.176 13.544 12.763 9.997 17.173 9.997C21.582 9.997 25.17 13.544 25.17 17.903V27.857C25.17 28.647 25.374 29.378 25.731 30H8.617Z" fill="white"/>
<path d="M17.181 13.225C14.612 13.225 12.521 15.315 12.521 17.884C12.521 18.437 12.969 18.884 13.521 18.884C14.073 18.884 14.521 18.437 14.521 17.884C14.521 16.418 15.714 15.225 17.181 15.225C17.733 15.225 18.181 14.778 18.181 14.225C18.181 13.672 17.733 13.225 17.181 13.225Z" fill="white"/>
</g>
<defs>
<clipPath id="clip0_51_69">
<rect width="34" height="42.5" fill="white"/>
</clipPath>
</defs>
</svg>
