<svg width="34" height="43" viewBox="0 0 34 43" fill="none" xmlns="http://www.w3.org/2000/svg">
<path d="M1.91633 37.9421H10.8505C10.852 37.9421 10.8527 37.9413 10.8542 37.9413C10.8617 37.9413 10.8688 37.9428 10.8763 37.9428H18.2154H18.2367H32.1819C32.8227 37.9428 33.3435 37.4216 33.3435 36.7812V21.4962C33.3435 21.4401 33.3406 21.386 33.3342 21.343C33.3114 21.173 33.3114 21.1715 30.8866 16.1451V14.0842C30.8866 13.0328 30.0306 12.1772 28.9792 12.1772H21.9091C20.8577 12.1772 20.0017 13.0324 20.0017 14.0842V16.0991C19.652 16.7048 19.3456 17.2361 19.0744 17.7069C18.8349 16.9405 18.4489 16.2721 17.8993 15.6949C17.652 15.4337 17.4842 15.1016 17.4132 14.7339C17.3038 14.166 17.2477 13.6538 17.2477 13.211C17.2477 12.0229 16.8528 9.26402 16.6338 7.82332C16.784 7.57224 16.8644 7.27297 16.8644 6.94978V5.18514C16.8644 4.5313 16.3338 4 15.6815 4H12.4918C11.8387 4 11.3082 4.5313 11.3082 5.18514V6.94978C11.3082 7.27147 11.387 7.56851 11.5402 7.82257C11.3205 9.2644 10.9252 12.0281 10.9252 13.211C10.9252 13.6298 10.8763 14.1051 10.7799 14.6267C10.7104 15.0048 10.5295 15.3511 10.2553 15.631C9.27154 16.6346 8.72941 17.9553 8.72941 19.3512V27.9988H1.91633C0.859714 27.9988 0 28.8574 0 29.914V36.0269C0 37.0824 0.859714 37.9421 1.91633 37.9421ZM10.8759 36.3785C10.5549 36.3785 10.2934 36.1165 10.2934 35.7952V31.0147L13.6796 32.8115C13.7943 32.872 13.9206 32.9026 14.0457 32.9026C14.1799 32.9026 14.3144 32.8675 14.4347 32.7991L17.0531 31.2986V36.3785H10.8759ZM18.6178 36.3785L18.6171 22.4926H26.6317V36.3785H18.6178ZM17.0534 29.4955L14.0315 31.2273L10.2938 29.2437V22.4926H17.0534V29.4955ZM31.7788 21.6198V36.3785H28.1965V22.4926H30.1038C30.5357 22.4926 30.8862 22.1422 30.8862 21.7103C30.8862 21.2784 30.5357 20.9279 30.1038 20.9279H28.5443L30.0695 18.0555C30.795 19.5619 31.5613 21.1554 31.7788 21.6198ZM21.2354 17.0907H27.1727C27.6046 17.0907 27.9551 16.7403 27.9551 16.3084C27.9551 15.8765 27.6046 15.526 27.1727 15.526H21.5661V14.0842C21.5661 13.8951 21.72 13.7419 21.9091 13.7419H28.9788C29.1679 13.7419 29.3218 13.8951 29.3218 14.0842V16.1283L26.7726 20.9279H19.0344C19.5933 19.9441 20.5158 18.3387 21.2354 17.0907ZM15.2996 5.56475V6.94978C15.2996 6.98191 15.2966 7.00171 15.2989 7.00582C15.0945 7.18031 14.9933 7.45007 15.0347 7.71945C15.1864 8.70022 15.6826 11.9949 15.6826 13.2106C15.6826 13.2521 15.6856 13.2966 15.6863 13.3399H12.4858C12.4866 13.2969 12.4896 13.2525 12.4896 13.2106C12.4896 12.2015 12.8348 9.74077 13.0384 8.38189H13.7169C14.1489 8.38189 14.4993 8.03143 14.4993 7.59952C14.4993 7.1676 14.1489 6.81714 13.7169 6.81714H12.8726V5.56475H15.2996ZM11.3713 16.7268C11.866 16.2239 12.1937 15.5944 12.3177 14.9091C12.3185 14.9062 12.3192 14.9032 12.3192 14.8998C12.3353 14.9013 12.3498 14.905 12.3652 14.905H15.8548C15.8627 14.9473 15.8679 14.9876 15.8769 15.0306C16.0039 15.6911 16.3103 16.2931 16.765 16.7724C17.4723 17.5167 17.8003 18.459 17.7984 19.7383C17.7984 19.7936 17.8044 19.8485 17.8153 19.9012C17.538 20.3917 17.3613 20.7119 17.2496 20.9286H10.2938V19.3516C10.2938 18.3671 10.6767 17.4352 11.3713 16.7268ZM1.91633 29.5624H8.72903V35.7952C8.72903 35.9974 8.75892 36.1924 8.8116 36.3777H1.91633C1.72204 36.3777 1.56475 36.22 1.56475 36.0269V32.3747H6.76936C7.20127 32.3747 7.55174 32.0242 7.55174 31.5923C7.55174 31.1604 7.20127 30.8099 6.76936 30.8099H1.56437V29.914C1.56437 29.7201 1.72204 29.5624 1.91633 29.5624Z" fill="white"/>
</svg>
