<svg width="34" height="43" viewBox="0 0 34 43" fill="none" xmlns="http://www.w3.org/2000/svg">
<g clip-path="url(#clip0_51_147)">
<path d="M25 25C23.284 25 21.738 25.728 20.643 26.887L15.472 23.45C16.142 21.968 16.191 20.269 15.526 18.675C15.508 18.632 15.483 18.595 15.464 18.552L20.634 15.108C21.769 16.314 23.329 17 25 17C28.309 17 31 14.309 31 11C31 7.691 28.309 5 25 5C21.691 5 19 7.691 19 11C19 11.854 19.196 12.672 19.538 13.436L14.362 16.884C13.26 15.698 11.719 15 10 15C6.692 15 4 17.691 4 21C4 24.309 6.691 27 10 27C11.596 27 13.103 26.379 14.251 25.243C14.291 25.202 14.322 25.156 14.361 25.114L19.528 28.548C19.192 29.298 19 30.126 19 31C19 34.309 21.691 37 25 37C28.309 37 31 34.309 31 31C31 27.691 28.308 25 25 25ZM25 7C27.206 7 29 8.794 29 11C29 13.205 27.206 15 25 15C23.764 15 22.614 14.439 21.85 13.467C21.293 12.751 21 11.898 21 11C21 8.794 22.793 7 25 7ZM10 25C7.794 25 6 23.205 6 21C6 18.794 7.794 17 10 17C15.213 17 15.352 25 10 25ZM25 35C22.794 35 21 33.205 21 31C21 28.794 22.794 27 25 27C27.206 27 29 28.794 29 31C29 33.205 27.206 35 25 35Z" fill="white"/>
</g>
<defs>
<clipPath id="clip0_51_147">
<rect width="34" height="42.5" fill="white"/>
</clipPath>
</defs>
</svg>
