<svg width="34" height="43" viewBox="0 0 34 43" fill="none" xmlns="http://www.w3.org/2000/svg">
<g clip-path="url(#clip0_51_134)">
<path d="M32.0254 13.4884C32.0254 12.1484 30.9884 11.0584 29.6544 11.0074C25.1224 10.8784 21.3834 9.10941 18.8364 5.88441C17.9014 4.72341 15.9824 4.68341 15.0074 5.89541C12.4574 9.16041 8.88844 10.8804 4.38744 11.0074C3.06244 11.0594 2.02544 12.1484 2.02544 13.4884C2.02544 18.5504 1.41244 24.5354 6.20444 29.9504C10.4954 34.6304 15.5084 36.9944 16.9494 36.9944C19.7004 36.9944 25.1514 32.8914 27.8594 29.9374C32.6414 24.5344 32.0254 18.5474 32.0254 13.4884ZM26.3724 28.5994C23.5224 31.7074 18.6794 34.9954 16.9484 34.9954C16.8514 34.9954 16.8134 34.9814 16.7924 34.9734C13.5144 33.7654 10.4474 31.6214 7.68944 28.6134C3.45744 23.8284 4.02544 18.5084 4.02544 13.4884C4.02544 13.2324 4.22244 13.0154 4.45444 13.0064C9.56844 12.8614 13.6484 10.8834 16.5744 7.13841C16.6424 7.05341 16.7774 7.00141 16.9264 7.00141C17.0744 7.00141 17.2094 7.05341 17.2724 7.13141C20.1934 10.8284 24.4564 12.8604 29.5874 13.0064C29.8294 13.0164 30.0254 13.2324 30.0254 13.4884C30.0254 18.5084 30.5934 23.8284 26.3724 28.5994Z" fill="white"/>
<path d="M22.3184 16.2945L15.0264 23.5875L12.7334 21.2945C12.3424 20.9035 11.7104 20.9035 11.3194 21.2945C10.9284 21.6855 10.9284 22.3175 11.3194 22.7085L14.3194 25.7085C14.5074 25.8965 14.7604 26.0015 15.0264 26.0015C15.2924 26.0015 15.5464 25.8965 15.7334 25.7085L23.7324 17.7085C24.1234 17.3175 24.1234 16.6855 23.7324 16.2945C23.3414 15.9035 22.7084 15.9035 22.3184 16.2945Z" fill="white"/>
</g>
<defs>
<clipPath id="clip0_51_134">
<rect width="34" height="42.5" fill="white"/>
</clipPath>
</defs>
</svg>
