<svg width="34" height="43" viewBox="0 0 34 43" fill="none" xmlns="http://www.w3.org/2000/svg">
<g clip-path="url(#clip0_51_50)">
<path d="M32.707 12.2933L25.707 5.29325C25.316 4.90225 24.684 4.90225 24.293 5.29325L17.293 12.2933C17.007 12.5793 16.921 13.0093 17.076 13.3833C17.231 13.7573 17.596 14.0002 18 14.0002H21V36.0002C21 36.5532 21.448 37.0003 22 37.0003H28C28.552 37.0003 29 36.5532 29 36.0002V14.0002H32C32.404 14.0002 32.769 13.7573 32.924 13.3833C33.079 13.0093 32.993 12.5793 32.707 12.2933ZM28 12.0002C27.448 12.0002 27 12.4472 27 13.0002V35.0002H23V13.0002C23 12.4472 22.552 12.0002 22 12.0002H20.414L25 7.41425L29.586 12.0002H28Z" fill="white"/>
<path d="M18 18.0052H12C11.448 18.0052 11 18.4522 11 19.0052V36.0002C11 36.5532 11.448 37.0002 12 37.0002H18C18.552 37.0002 19 36.5532 19 36.0002V19.0052C19 18.4522 18.552 18.0052 18 18.0052ZM17 35.0002H13V20.0052H17V35.0002Z" fill="white"/>
<path d="M8 22.0093H2C1.448 22.0093 1 22.4563 1 23.0093V36.0003C1 36.5533 1.448 37.0003 2 37.0003H8C8.552 37.0003 9 36.5533 9 36.0003V23.0093C9 22.4563 8.552 22.0093 8 22.0093ZM7 35.0003H3V24.0093H7V35.0003Z" fill="white"/>
</g>
<defs>
<clipPath id="clip0_51_50">
<rect width="34" height="42.5" fill="white"/>
</clipPath>
</defs>
</svg>
