<svg width="34" height="43" viewBox="0 0 34 43" fill="none" xmlns="http://www.w3.org/2000/svg">
<g clip-path="url(#clip0_51_75)">
<path d="M28.749 31.824C31.378 28.971 33 25.176 33 21C33 12.178 25.822 5 17 5C8.178 5 1 12.178 1 21C1 25.171 2.617 28.962 5.241 31.813C5.285 31.878 5.339 31.932 5.398 31.985C8.316 35.066 12.432 37 17 37C21.551 37 25.655 35.08 28.571 32.019C28.639 31.96 28.699 31.898 28.749 31.824ZM17 7C24.72 7 31 13.28 31 21C31 23.963 30.068 26.71 28.491 28.975C27.391 25.241 24.543 22.327 20.917 21.082C22.477 19.893 23.491 18.022 23.491 15.914C23.491 12.33 20.575 9.414 16.991 9.414C13.407 9.414 10.491 12.33 10.491 15.914C10.491 18.025 11.507 19.898 13.071 21.087C9.457 22.334 6.609 25.242 5.501 28.965C3.928 26.701 3 23.958 3 21C3 13.28 9.28 7 17 7ZM16.991 20.414C14.51 20.414 12.491 18.395 12.491 15.914C12.491 13.433 14.509 11.414 16.991 11.414C19.472 11.414 21.491 13.433 21.491 15.914C21.491 18.395 19.473 20.414 16.991 20.414ZM7.121 30.909C7.855 26.047 12.013 22.426 16.998 22.418C21.99 22.418 26.147 26.044 26.865 30.922C24.332 33.44 20.845 35 17 35C13.148 35 9.655 33.435 7.121 30.909Z" fill="white"/>
</g>
<defs>
<clipPath id="clip0_51_75">
<rect width="34" height="42.5" fill="white"/>
</clipPath>
</defs>
</svg>
