<svg width="34" height="43" viewBox="0 0 34 43" fill="none" xmlns="http://www.w3.org/2000/svg">
<g clip-path="url(#clip0_51_79)">
<path d="M32.7065 20.079C28.1605 15.534 24.6745 11 16.9995 11C9.3075 11 5.8035 15.569 1.2925 20.079C0.9025 20.469 0.9025 21.103 1.2925 21.493C5.8425 26.044 9.3245 30.573 16.9995 30.573C24.6915 30.573 28.1965 26.003 32.7065 21.493C33.0965 21.103 33.0965 20.47 32.7065 20.079ZM16.9995 28.574C10.3775 28.574 7.3565 24.73 3.4135 20.787C7.2665 16.934 10.2985 13 16.9995 13C23.6215 13 26.6415 16.844 30.5855 20.786C26.7325 24.639 23.7005 28.574 16.9995 28.574Z" fill="white"/>
<path d="M16.9995 14.787C13.6905 14.787 10.9995 17.478 10.9995 20.787C10.9995 24.096 13.6905 26.787 16.9995 26.787C20.3085 26.787 22.9995 24.096 22.9995 20.787C22.9995 17.478 20.3085 14.787 16.9995 14.787ZM16.9995 24.787C14.7935 24.787 12.9995 22.993 12.9995 20.787C12.9995 18.581 14.7935 16.787 16.9995 16.787C19.2055 16.787 20.9995 18.581 20.9995 20.787C20.9995 22.993 19.2055 24.787 16.9995 24.787Z" fill="white"/>
<path d="M15.2965 19.079C14.8825 19.493 14.9095 20.124 15.2965 20.489C15.6645 20.877 16.2935 20.901 16.7065 20.489C17.0755 20.14 17.1125 19.486 16.7065 19.079C16.3355 18.709 15.6565 18.709 15.2965 19.079Z" fill="white"/>
</g>
<defs>
<clipPath id="clip0_51_79">
<rect width="34" height="42.5" fill="white"/>
</clipPath>
</defs>
</svg>
